<?xml version="1.0" encoding="utf-8"?>
<!-- Svg Vector Icons : http://www.onlinewebfonts.com/icon -->
<!DOCTYPE svg PUBLIC "-//W3C//DTD SVG 1.1//EN" "http://www.w3.org/Graphics/SVG/1.1/DTD/svg11.dtd">
<svg version="1.1" xmlns="http://www.w3.org/2000/svg" xmlns:xlink="http://www.w3.org/1999/xlink" x="0px" y="0px" viewBox="0 0 1000 1000" enable-background="new 0 0 1000 1000" xml:space="preserve">
<metadata> Svg Vector Icons : http://www.onlinewebfonts.com/icon </metadata>
<g><g transform="translate(0.000000,512.000000) scale(0.100000,-0.100000)"><path d="M4555.9,5014c-1907-168.1-3147.5-902.3-3532-2094.4C910,2569.9,875.2,2254.9,890.7,1712c15.5-571.9,85-1055,235.7-1630.7c36.7-143,67.6-282.1,67.6-309.2c0-27-34.8-106.3-77.3-175.8c-67.6-112.1-77.3-139.1-77.3-245.4c0-146.8,52.2-291.7,160.4-456c96.6-143,517.8-533.3,738.1-682.1c133.3-90.8,166.2-104.3,247.3-104.3c152.7,0,272.4,90.8,322.7,243.4c32.8,94.7,13.5,330.4-36.7,490.8c-21.2,69.6-52.2,179.7-67.6,247.3l-27,121.7l54.1-34.8c197.1-123.7,440.5-400,539.1-604.8l50.2-106.3l5.8-1207.6l5.8-1209.5l403.8-403.8l405.8-405.7v1512.9v1510.9h86.9h86.9V-3215v-1478.1l112.1-1.9c347.8-9.7,581.6-9.7,637.6-1.9l61.8,7.7V-3213v1476.2h86.9h86.9v-1483.9v-1483.9l411.5,3.9l409.6,3.9l5.8,1480l3.9,1480h77.3h77.3v-1520.6V-4780l415.4,415.4l415.4,415.4v1188.3v1188.3l59.9,125.6c75.4,160.4,307.2,392.2,556.5,556.5c100.5,65.7,185.5,115.9,189.4,114c5.8-5.8-34.8-170-121.7-486.9c-36.7-127.5-34.8-322.7,1.9-411.5c61.8-143,166.2-216.4,313-216.4c81.2,0,114,13.5,247.3,104.3c220.3,148.8,641.5,539.1,738.1,682.1c183.6,276.3,208.7,498.5,77.3,711c-38.6,63.8-71.5,139.1-71.5,166.2c0,27.1,30.9,166.2,67.6,309.2C9025,657.1,9094.6,1140.1,9110,1712c17.4,674.3-44.4,1053-245.4,1487.8C8426,4152.3,7357.5,4770.6,5792.5,4977.3C5562.6,5008.2,4756.9,5031.4,4555.9,5014z M2158.1,2757.3c30.9-17.4,156.5-129.5,276.3-249.2c251.2-251.2,452.1-411.6,778.6-622.1c328.5-212.5,1232.7-842.4,1259.8-877.2c13.5-17.4,25.1-61.8,25.1-102.4c0-59.9-13.5-83.1-98.5-158.4c-191.3-172-409.6-243.4-790.2-257c-297.6-11.6-533.3,17.4-884.9,110.1c-423.1,110.1-709.1,257-896.5,461.8c-172,183.6-183.6,222.2-276.3,830.8c-54.1,353.6-59.9,473.4-25.1,583.5c38.6,133.3,172,258.9,324.6,309.2C1920.5,2809.5,2086.7,2792.1,2158.1,2757.3z M8190.3,2765c92.8-25.1,228-144.9,270.5-239.6c61.8-135.3,40.6-415.4-79.2-1072.3c-86.9-469.5-587.4-786.4-1468.4-929.4c-575.8-92.7-1060.8-3.9-1323.5,241.5c-75.4,69.6-87,90.8-87,156.5c0,56,11.6,88.9,44.4,117.9c58,52.2,966.1,668.5,1230.8,836.6c320.7,200.9,562.2,388.4,799.9,624.1c117.9,115.9,249.2,228,291.8,247.3C7954.6,2788.2,8084,2794,8190.3,2765z M4867,562.4c83.1-46.4,100.5-123.7,88.9-425.1c-11.6-293.7-23.2-351.6-148.8-701.4c-50.2-143-61.8-206.7-71.5-409.6c-5.8-133.3-15.4-241.5-21.2-241.5c-3.9,0-88.9,40.6-185.5,92.7c-305.3,158.4-498.5,390.3-556.5,662.7c-17.4,85-17.4,121.7,1.9,166.2c13.5,32.8,129.5,166.2,258.9,297.5c164.2,166.2,262.8,284,322.7,388.4c46.4,81.1,102.4,156.5,125.6,168.1C4733.7,585.6,4820.6,585.6,4867,562.4z M5417.7,546.9c21.3-17.4,63.8-75.4,94.7-129.5c86.9-154.6,204.8-297.5,401.9-485c197.1-189.4,220.3-233.8,199-382.6c-38.6-251.2-258.9-513.9-564.2-672.4c-96.6-52.2-181.6-92.7-189.3-92.7c-5.8,0-11.6,79.2-11.6,173.9c0,195.1-38.6,417.3-98.6,554.5c-75.3,175.8-114,361.3-127.5,597c-13.5,278.2,0,363.2,65.7,425.1C5247.6,591.4,5357.8,597.1,5417.7,546.9z"/></g></g>
</svg>